<?xml version="1.0" standalone="no"?>
<!DOCTYPE svg PUBLIC "-//W3C//DTD SVG 20010904//EN"
 "http://www.w3.org/TR/2001/REC-SVG-20010904/DTD/svg10.dtd">
<svg version="1.0" xmlns="http://www.w3.org/2000/svg"
 width="768.000000pt" height="192.000000pt" viewBox="0 0 768.000000 192.000000"
 preserveAspectRatio="xMidYMid meet">

<g transform="translate(0.000000,192.000000) scale(0.100000,-0.100000)"
fill="#000000" stroke="none">
<path d="M6110 1419 c-74 -4 -209 -13 -300 -18 -91 -6 -246 -13 -345 -16 -99
-4 -195 -10 -214 -15 -19 -5 -37 -7 -39 -5 -3 3 -11 -3 -19 -13 -12 -16 -13
-16 -7 2 6 16 5 17 -15 7 -12 -7 -31 -9 -44 -5 -22 8 -206 6 -219 -2 -3 -2
-87 -6 -185 -9 -204 -6 -236 -10 -253 -30 -13 -16 -75 -21 -66 -6 3 5 16 7 28
3 15 -4 19 -2 13 8 -10 16 -168 6 -173 -10 -3 -8 -8 -7 -17 0 -20 16 -289 -2
-312 -21 -15 -12 -16 -12 -10 4 6 16 4 16 -22 3 -16 -9 -32 -12 -35 -8 -4 3
-11 0 -16 -7 -7 -12 -11 -12 -24 2 -13 13 -35 15 -133 10 -83 -4 -121 -9 -129
-19 -14 -17 -31 -18 -36 -3 -4 12 -308 1 -623 -22 -71 -5 -150 -9 -175 -9 -25
0 -115 -4 -200 -10 -85 -6 -198 -12 -250 -15 -52 -3 -183 -10 -290 -16 -107
-5 -285 -14 -395 -19 -184 -9 -201 -11 -214 -30 -16 -24 -31 -26 -31 -5 0 12
-13 15 -59 15 l-59 0 0 -34 0 -35 111 5 c62 3 137 8 167 11 30 4 61 5 68 4 11
-2 359 16 747 40 88 5 226 12 307 16 81 3 146 9 144 12 -2 3 24 4 57 2 34 -2
139 2 232 8 94 6 250 13 348 17 130 5 182 10 192 20 16 16 35 18 35 4 0 -5 20
-10 45 -10 25 0 45 3 45 8 0 4 24 5 54 4 47 -3 54 -1 59 17 5 21 47 31 47 11
0 -18 40 -32 56 -19 8 6 17 9 21 6 3 -4 13 -2 20 5 11 9 16 9 22 -1 7 -10 34
-11 120 -6 99 7 111 10 111 26 0 11 5 19 10 19 6 0 10 -8 8 -17 -3 -21 -21
-21 432 2 403 20 421 22 427 46 7 25 20 24 33 -1 12 -23 30 -24 83 -6 24 9 37
10 37 3 0 -9 211 -5 350 7 25 2 126 7 225 11 99 4 183 9 187 11 4 3 74 7 155
10 205 6 213 8 213 44 l0 30 -82 -1 c-46 -1 -144 -6 -218 -10z m-795 -79 c-3
-5 -10 -10 -16 -10 -5 0 -9 5 -9 10 0 6 7 10 16 10 8 0 12 -4 9 -10z m-1260
-60 c3 -5 1 -10 -4 -10 -6 0 -11 5 -11 10 0 6 2 10 4 10 3 0 8 -4 11 -10z
m-2530 -139 c10 -17 -12 -21 -25 -6 -10 12 -10 15 3 15 9 0 18 -4 22 -9z"/>
<path d="M6090 1311 c0 -5 -9 -7 -19 -4 -50 13 -134 -81 -147 -164 -24 -164
56 -288 196 -300 69 -7 110 2 110 22 0 10 11 15 35 15 29 0 39 6 59 38 73 110
54 287 -36 355 -18 14 -51 30 -73 36 -49 13 -125 14 -125 2z m45 -11 c3 -5 1
-10 -4 -10 -6 0 -11 5 -11 10 0 6 2 10 4 10 3 0 8 -4 11 -10z m48 -59 c14 -5
38 -24 55 -42 25 -27 31 -43 37 -103 6 -72 1 -93 -35 -141 -19 -25 -54 -45
-78 -45 -10 0 -39 7 -65 16 -54 18 -74 49 -83 128 -15 130 70 224 169 187z"/>
<path d="M5720 1273 c-20 -26 -21 -26 -17 -5 6 25 -11 29 -61 11 -21 -7 -36
-7 -50 0 -12 6 -37 7 -63 3 -36 -6 -45 -12 -47 -31 -5 -32 12 -41 84 -41 l61
0 9 -112 c5 -62 9 -138 10 -168 2 -88 3 -90 29 -102 22 -10 28 -8 45 10 19 20
26 52 15 63 -2 3 -6 73 -8 157 l-4 152 33 16 c26 12 37 14 48 5 20 -17 66 3
66 29 0 25 -35 40 -90 40 -30 0 -43 -6 -60 -27z m-10 -179 c0 -2 -7 -4 -15 -4
-8 0 -15 4 -15 10 0 5 7 7 15 4 8 -4 15 -8 15 -10z"/>
<path d="M5193 1263 c-29 -2 -53 -8 -53 -14 0 -5 -9 -9 -19 -9 -12 0 -20 -7
-20 -17 -1 -10 -4 -37 -7 -61 -7 -51 4 -135 17 -127 5 4 9 2 9 -4 0 -5 -4 -13
-10 -16 -10 -6 -7 -186 5 -204 10 -17 309 -8 330 9 23 19 19 49 -7 55 -13 3
-72 4 -133 3 l-110 -3 -3 47 c-3 46 -4 47 -28 38 -40 -16 -40 -12 2 20 30 23
50 30 87 30 35 0 47 4 47 15 0 8 5 15 11 15 5 0 7 -4 4 -10 -9 -14 29 -12 43
2 9 9 12 9 12 -1 0 -23 45 -8 48 16 3 17 -4 26 -24 34 -37 14 -104 2 -104 -18
0 -11 -4 -13 -12 -6 -23 18 -69 24 -84 12 -12 -10 -14 -1 -14 54 0 50 4 66 16
71 9 3 60 6 114 6 101 0 129 10 110 40 -5 8 -6 18 -4 22 8 12 -84 10 -108 -3
-14 -8 -23 -8 -31 0 -6 6 -16 10 -21 9 -6 -1 -35 -3 -63 -5z m-33 -197 c0 -17
-14 -29 -23 -20 -8 8 3 34 14 34 5 0 9 -6 9 -14z m33 -29 c2 -7 -6 -18 -19
-24 -13 -6 -24 -7 -24 -2 0 5 5 9 10 9 6 0 9 3 9 8 -4 24 15 32 24 9z m-43
-137 c0 -5 -5 -10 -11 -10 -5 0 -7 5 -4 10 3 6 8 10 11 10 2 0 4 -4 4 -10z"/>
<path d="M4703 1240 c-12 -5 -25 -20 -29 -34 -7 -28 3 -66 17 -66 15 0 10 -37
-6 -44 -10 -3 -13 -14 -10 -33 6 -32 16 -176 16 -213 -1 -64 24 -93 58 -67 18
13 20 25 8 43 -4 7 0 17 9 24 11 10 14 28 12 69 -3 56 -3 56 27 59 36 4 92
-23 100 -49 4 -10 17 -27 31 -38 13 -10 24 -24 24 -31 0 -7 9 -24 19 -39 16
-23 26 -27 51 -23 18 2 34 10 36 17 8 19 -35 96 -80 143 l-40 42 24 17 c14 10
30 18 35 18 6 0 18 16 28 35 26 50 17 105 -22 144 l-31 31 -128 2 c-70 2 -137
-2 -149 -7z m287 -56 c0 -11 -5 -14 -16 -10 -9 3 -18 6 -20 6 -3 0 -2 5 1 10
10 16 35 12 35 -6z m-66 -3 c-2 -2 5 -11 16 -18 17 -12 19 -21 14 -51 -4 -20
-16 -45 -27 -55 -20 -17 -20 -18 -1 -33 18 -15 18 -15 -8 -11 -16 2 -28 0 -28
-4 0 -5 -4 -9 -10 -9 -5 0 -10 7 -10 15 0 8 5 15 11 15 5 0 7 5 3 11 -4 7 -25
9 -56 7 -57 -6 -68 6 -68 69 0 45 8 59 34 64 26 5 135 5 130 0z m-194 -31 c0
-5 -5 -10 -11 -10 -5 0 -7 5 -4 10 3 6 8 10 11 10 2 0 4 -4 4 -10z"/>
<path d="M4370 1217 c-59 -32 -82 -52 -101 -89 -11 -22 -19 -41 -17 -41 45
-22 58 -49 26 -55 -11 -2 -18 3 -18 12 0 9 -4 16 -9 16 -17 0 -17 -86 0 -148
30 -112 114 -171 225 -158 63 7 94 20 94 40 0 8 7 19 15 26 19 16 20 31 1 24
-8 -3 -17 -1 -21 5 -8 14 38 14 52 0 14 -14 37 43 29 76 -6 24 -36 36 -36 14
0 -5 -21 -32 -47 -58 -61 -61 -105 -72 -167 -41 -34 16 -45 28 -54 58 -22 73
-23 111 -6 166 31 98 97 122 193 71 25 -14 40 -25 33 -25 -9 0 -8 -7 4 -25 19
-28 32 -31 59 -11 18 13 18 15 1 53 -9 21 -34 52 -54 68 -32 26 -47 30 -107
33 -45 2 -79 -2 -95 -11z m240 -87 c0 -5 -4 -10 -10 -10 -5 0 -10 5 -10 10 0
6 5 10 10 10 6 0 10 -4 10 -10z m17 -26 c-3 -3 -12 -4 -19 -1 -8 3 -5 6 6 6
11 1 17 -2 13 -5z m-322 -194 c3 -5 4 -10 1 -10 -2 0 -11 -3 -19 -6 -8 -3 -17
2 -20 10 -7 18 27 23 38 6z m-1 -39 c3 -5 -1 -11 -9 -15 -9 -3 -15 0 -15 9 0
16 16 20 24 6z m251 -51 c-3 -5 -13 -10 -21 -10 -8 0 -14 5 -14 10 0 6 9 10
21 10 11 0 17 -4 14 -10z m-85 -30 c0 -5 -2 -10 -4 -10 -3 0 -8 5 -11 10 -3 6
-1 10 4 10 6 0 11 -4 11 -10z"/>
<path d="M4060 1195 c-14 -7 -29 -10 -35 -5 -13 10 -124 9 -131 -1 -3 -5 -17
-9 -30 -9 -16 0 -24 -5 -21 -12 2 -7 0 -23 -4 -36 -11 -28 1 -173 12 -166 5 3
9 0 9 -5 0 -6 -4 -11 -8 -11 -11 0 -2 -180 10 -203 9 -17 21 -18 161 -12 136
6 154 9 170 27 35 42 -16 63 -117 49 -35 -5 -83 -7 -105 -4 -39 5 -40 6 -38
47 2 40 1 41 -28 38 l-30 -3 37 25 c27 19 55 27 110 32 40 4 76 12 80 18 5 8
8 7 8 -1 0 -16 32 -17 48 -1 16 16 15 23 -4 42 -25 25 -133 19 -117 -7 4 -7 0
-8 -13 -2 -37 16 -86 18 -95 4 -5 -9 -8 12 -7 55 1 38 6 70 12 72 6 2 57 5
113 6 56 2 107 8 113 14 7 7 8 19 1 37 -9 22 -17 27 -43 27 -18 -1 -44 -7 -58
-15z m-60 -35 c0 -5 -4 -10 -10 -10 -5 0 -10 5 -10 10 0 6 5 10 10 10 6 0 10
-4 10 -10z m-100 -165 c0 -8 -4 -15 -10 -15 -5 0 -10 7 -10 15 0 8 5 15 10 15
6 0 10 -7 10 -15z m35 -24 c6 -11 -33 -36 -42 -27 -7 7 16 36 28 36 4 0 10 -4
14 -9z m-40 -141 c-3 -5 -11 -10 -16 -10 -6 0 -7 5 -4 10 3 6 11 10 16 10 6 0
7 -4 4 -10z m55 -54 c0 -3 -4 -8 -10 -11 -5 -3 -10 -1 -10 4 0 6 5 11 10 11 6
0 10 -2 10 -4z"/>
<path d="M3514 1161 c-44 -27 -64 -55 -71 -95 -8 -51 32 -111 84 -125 48 -14
63 -14 63 -1 0 6 5 10 11 10 6 0 9 -6 6 -14 -4 -10 8 -18 38 -26 54 -15 78
-39 73 -77 -2 -21 -12 -33 -42 -47 -57 -28 -100 -14 -141 44 -34 49 -60 57
-81 25 -19 -30 19 -103 68 -127 63 -33 178 -25 178 12 0 22 28 34 45 20 20
-17 55 26 56 69 2 53 -2 84 -12 102 -11 22 -98 62 -121 56 -10 -3 -16 -1 -12
4 3 5 -7 9 -21 9 -15 0 -24 -4 -20 -10 3 -5 0 -10 -7 -10 -7 0 -19 9 -26 20
-7 11 -23 20 -37 20 -30 0 -32 16 -8 78 12 32 20 41 32 36 9 -3 29 -8 45 -10
16 -2 40 -11 52 -19 13 -8 37 -15 54 -15 16 0 30 -4 30 -10 0 -5 -7 -10 -15
-10 -8 0 -15 -7 -15 -16 0 -10 7 -14 23 -12 17 2 23 11 25 37 4 39 -12 61 -30
43 -17 -17 -63 -15 -78 3 -11 13 -6 15 36 15 l49 1 -23 19 c-31 26 -166 27
-208 1z m136 -1 c0 -5 -5 -10 -11 -10 -5 0 -7 5 -4 10 3 6 8 10 11 10 2 0 4
-4 4 -10z m-96 -156 c23 -9 9 -24 -21 -24 -21 0 -24 2 -13 15 14 17 13 17 34
9z m166 -44 c0 -5 -4 -10 -10 -10 -5 0 -10 5 -10 10 0 6 5 10 10 10 6 0 10 -4
10 -10z"/>
<path d="M3131 1139 c-10 -11 -21 -33 -24 -47 -3 -15 -29 -92 -57 -172 -79
-225 -78 -220 -39 -241 29 -15 55 5 68 53 6 24 14 48 18 55 5 6 44 12 98 14
l90 3 21 -38 c35 -62 58 -80 83 -67 25 14 28 50 7 89 -20 39 -100 219 -122
275 -11 27 -29 60 -41 73 -28 30 -75 32 -102 3z m73 -121 c8 -18 23 -56 34
-85 24 -61 21 -63 -65 -63 -48 0 -54 2 -48 18 3 9 13 42 21 72 27 105 35 113
58 58z"/>
<path d="M2595 1133 c-34 -9 -45 -24 -45 -63 0 -24 5 -40 15 -44 20 -7 19 -36
-1 -36 -13 0 -14 -12 -9 -87 10 -135 11 -138 18 -150 4 -6 3 -13 -3 -15 -14
-5 3 -59 22 -72 23 -14 63 21 47 40 -6 8 -7 19 -2 26 4 7 10 40 13 73 4 54 8
60 28 63 40 6 80 -18 117 -69 19 -27 35 -53 35 -57 0 -5 12 -19 26 -33 25 -23
68 -28 87 -10 13 12 -42 110 -84 151 l-39 38 35 22 c48 30 65 57 65 107 0 35
-6 50 -34 81 l-34 37 -119 2 c-65 1 -127 -1 -138 -4z m270 -54 c10 -15 -1 -23
-20 -15 -9 3 -13 10 -10 16 8 13 22 13 30 -1z m-47 -32 c25 -23 17 -71 -16
-97 -24 -19 -24 -21 -7 -34 17 -12 16 -14 -13 -18 -37 -5 -46 0 -31 18 15 18
-3 24 -61 21 l-45 -2 -3 62 c-3 58 -2 61 24 70 37 12 129 0 152 -20z"/>
<path d="M2360 1100 c0 -11 -7 -20 -15 -20 -9 0 -12 6 -9 15 7 18 -21 20 -62
5 -19 -8 -30 -8 -38 0 -13 13 -57 13 -90 0 -18 -6 -26 -17 -26 -34 0 -28 21
-36 96 -36 l51 0 7 -112 c4 -62 8 -140 10 -173 4 -83 4 -83 26 -95 14 -7 26
-8 38 -1 14 8 14 11 2 11 -9 1 -5 5 8 11 16 6 22 14 18 26 -3 10 -8 91 -11
179 l-6 162 28 8 c15 4 45 8 67 9 26 0 42 6 50 18 17 28 -17 47 -86 47 -51 0
-58 -2 -58 -20z m-25 -180 c3 -5 2 -10 -4 -10 -5 0 -13 5 -16 10 -3 6 -2 10 4
10 5 0 13 -4 16 -10z"/>
<path d="M1778 1068 c-19 -19 -20 -28 -14 -167 9 -202 16 -259 33 -276 11 -12
35 -14 121 -9 151 9 186 16 190 37 8 39 -15 47 -129 47 l-108 0 -5 53 c-4 28
-8 106 -10 172 -2 66 -7 127 -11 137 -10 26 -44 29 -67 6z"/>
<path d="M1672 1069 c2 -7 10 -15 17 -17 8 -3 12 1 9 9 -2 7 -10 15 -17 17 -8
3 -12 -1 -9 -9z"/>
<path d="M1337 1053 c-3 -5 -5 -50 -6 -102 -1 -79 1 -96 16 -107 17 -13 17
-13 0 -14 -17 0 -18 -6 -12 -52 4 -29 8 -53 9 -54 36 -22 48 -34 33 -34 -24 0
-21 -21 6 -46 48 -45 102 -58 184 -43 129 24 155 66 152 240 -1 75 -6 115 -15
124 -7 7 -10 16 -6 20 4 4 7 18 7 31 1 19 -4 24 -22 24 -13 0 -23 -4 -23 -10
0 -5 -4 -10 -10 -10 -5 0 -10 7 -10 15 0 8 -4 15 -10 15 -22 0 -8 -29 18 -38
l27 -10 -28 -7 c-28 -7 -29 -9 -22 -54 8 -54 7 -204 -2 -229 -4 -9 -11 -20
-17 -24 -7 -6 -6 -11 4 -18 11 -8 8 -9 -15 -6 -16 2 -49 5 -73 5 -64 1 -87 30
-98 117 -4 38 -7 88 -5 112 3 40 1 43 -33 57 -40 17 -46 24 -16 22 11 -1 20
-5 20 -9 0 -4 7 -5 15 -2 19 8 19 44 -1 72 -14 21 -58 30 -67 15z m40 -159
c-3 -3 -12 -4 -19 -1 -8 3 -5 6 6 6 11 1 17 -2 13 -5z m50 -240 c-3 -3 -12 -4
-19 -1 -8 3 -5 6 6 6 11 1 17 -2 13 -5z"/>
<path d="M6289 815 c-3 -2 -75 -7 -160 -10 -293 -9 -451 -22 -460 -36 -8 -12
-10 -12 -18 0 -7 11 -38 12 -192 2 -101 -7 -201 -12 -223 -11 -21 0 -49 -6
-62 -15 -14 -9 -23 -11 -22 -4 5 18 -48 20 -182 8 -131 -13 -170 -27 -170 -61
0 -20 4 -20 88 -14 110 8 425 26 473 26 28 0 38 5 42 20 7 26 27 26 27 -1 0
-19 4 -20 88 -13 48 4 90 12 94 18 5 7 8 7 8 1 0 -12 126 -10 335 6 136 9 250
15 398 17 l87 2 0 35 0 35 -73 0 c-41 0 -76 -2 -78 -5z m-1442 -121 c-3 -3
-12 -4 -19 -1 -8 3 -5 6 6 6 11 1 17 -2 13 -5z"/>
<path d="M4680 733 c-25 -2 -157 -10 -295 -18 -137 -8 -297 -17 -355 -19 -80
-2 -106 -7 -114 -19 -8 -13 -12 -13 -31 -1 -23 15 -121 12 -580 -16 -88 -6
-203 -10 -255 -10 -102 -1 -324 -22 -352 -35 -10 -4 -18 -18 -18 -31 0 -29
-22 -29 325 -9 276 15 496 27 850 46 110 6 217 12 239 13 22 1 44 9 51 19 16
22 25 22 25 0 0 -14 13 -15 127 -9 83 4 130 11 135 19 6 8 10 9 16 1 5 -7 52
-8 152 -4 155 8 187 14 170 35 -6 7 -8 20 -4 29 5 12 1 15 -17 13 -13 -1 -44
-3 -69 -4z"/>
<path d="M2470 614 c-91 -8 -196 -14 -235 -14 -155 0 -546 -27 -557 -38 -9 -9
-9 -12 0 -12 7 0 12 -7 12 -15 0 -9 -9 -15 -25 -15 -20 0 -24 5 -22 23 2 22 0
22 -93 19 -52 -1 -137 -5 -187 -8 l-93 -6 0 -35 c0 -35 0 -35 38 -30 30 4 237
17 317 19 98 3 567 29 590 33 17 2 109 7 206 9 97 3 186 9 200 14 17 7 24 17
25 41 1 17 -1 30 -5 30 -3 -1 -80 -8 -171 -15z"/>
</g>
</svg>
